<?xml version="1.0" encoding="UTF-8" standalone="no"?>
<!-- Generator: Adobe Illustrator 16.0.0, SVG Export Plug-In . SVG Version: 6.00 Build 0)  -->

<svg
   xmlns:dc="http://purl.org/dc/elements/1.1/"
   xmlns:cc="http://creativecommons.org/ns#"
   xmlns:rdf="http://www.w3.org/1999/02/22-rdf-syntax-ns#"
   xmlns:svg="http://www.w3.org/2000/svg"
   xmlns="http://www.w3.org/2000/svg"
   xmlns:xlink="http://www.w3.org/1999/xlink"
   xmlns:sodipodi="http://sodipodi.sourceforge.net/DTD/sodipodi-0.dtd"
   xmlns:inkscape="http://www.inkscape.org/namespaces/inkscape"
   version="1.1"
   id="root_1_"
   x="0px"
   y="0px"
   width="800px"
   height="75px"
   viewBox="0 0 800 75"
   enable-background="new 0 0 800 75"
   xml:space="preserve"
   inkscape:version="0.91 r13725"
   sodipodi:docname="logo_debian_softwaves_dark.svg"><metadata
     id="metadata103"><rdf:RDF><cc:Work
         rdf:about=""><dc:format>image/svg+xml</dc:format><dc:type
           rdf:resource="http://purl.org/dc/dcmitype/StillImage" /><dc:title /></cc:Work></rdf:RDF></metadata><defs
     id="defs101"><radialGradient
       gradientUnits="userSpaceOnUse"
       gradientTransform="matrix(1 0 0 1 -220.6406 -1321.8398)"
       r="74.1885"
       cy="1379.752"
       cx="409.0801"
       id="radialGradient4675"><stop
         id="stop4677"
         style="stop-color:#cc9acc;stop-opacity:1"
         offset="0" /><stop
         id="stop4679"
         style="stop-color:#FEF9C8;stop-opacity:0"
         offset="1" /></radialGradient><linearGradient
       gradientTransform="translate(2596.3594,1189.958)"
       y2="-1152.458"
       x2="-1736.9565"
       y1="-1152.458"
       x1="-2653.062"
       gradientUnits="userSpaceOnUse"
       id="SVGID_1_"><stop
         id="stop5"
         style="stop-color:#133456"
         offset="0" /><stop
         id="stop7"
         style="stop-color:#ffccff;stop-opacity:1"
         offset="0.5025" /><stop
         id="stop9"
         style="stop-color:#203F5E"
         offset="1" /></linearGradient><radialGradient
       gradientUnits="userSpaceOnUse"
       gradientTransform="matrix(1.1356,0,0,1,-246.0914,-1284.9688)"
       r="286.01559"
       cy="1322.4688"
       cx="568.9668"
       id="SVGID_2_"
       xlink:href="#SVGID_1_"><stop
         id="stop14"
         style="stop-color:#666666;stop-opacity:0.78779072"
         offset="0" /><stop
         id="stop16"
         style="stop-color:#333333;stop-opacity:0.65406978"
         offset="0.1429" /><stop
         id="stop18"
         style="stop-color:#000033;stop-opacity:0.65406978"
         offset="0.3797" /><stop
         id="stop20"
         style="stop-color:#000033;stop-opacity:0.71802324"
         offset="0.4877" /></radialGradient><radialGradient
       inkscape:collect="always"
       xlink:href="#radialGradient4675"
       id="radialGradient4665"
       gradientUnits="userSpaceOnUse"
       gradientTransform="matrix(0.7387,0.0645,-0.0694,0.5094,-64.743,-1553.2639)"
       cx="825.59961"
       cy="3011.123"
       r="224.6758" /><radialGradient
       gradientUnits="userSpaceOnUse"
       gradientTransform="matrix(0.7387 0.0645 -0.0694 0.5094 -64.743 -1553.2639)"
       r="224.6758"
       cy="3011.123"
       cx="825.5996"
       id="SVGID_7_"><stop
         id="stop55"
         style="stop-color:#BCCCB3"
         offset="0" /><stop
         id="stop57"
         style="stop-color:#FEF9C8;stop-opacity:0"
         offset="1" /></radialGradient><linearGradient
       xlink:href="#SVGID_1_"
       gradientTransform="matrix(-0.7403,-0.043,0.0546,-0.5112,927.462,-759.2089)"
       y2="-1747.3735"
       x2="570.69177"
       y1="-1747.3735"
       x1="804.20612"
       gradientUnits="userSpaceOnUse"
       id="SVGID_8_"><stop
         id="stop62"
         style="stop-color:#ccb4cc;stop-opacity:1"
         offset="0" /><stop
         id="stop64"
         style="stop-color:#FEF9C8;stop-opacity:0"
         offset="1" /></linearGradient></defs><sodipodi:namedview
     pagecolor="#ffffff"
     bordercolor="#666666"
     borderopacity="1"
     objecttolerance="10"
     gridtolerance="10"
     guidetolerance="10"
     inkscape:pageopacity="0"
     inkscape:pageshadow="2"
     inkscape:window-width="1920"
     inkscape:window-height="1007"
     id="namedview99"
     showgrid="false"
     inkscape:zoom="1.1125"
     inkscape:cx="423.48364"
     inkscape:cy="-201.4993"
     inkscape:window-x="0"
     inkscape:window-y="0"
     inkscape:window-maximized="1"
     inkscape:current-layer="root_1_" /><rect
     style="fill:url(#SVGID_1_);fill-opacity:1.0"
     id="rect11"
     height="120.008"
     width="917.82001"
     y="-22.504"
     x="-58.91" /><rect
     style="fill:url(#SVGID_2_);fill-opacity:1.0"
     id="rect22"
     height="120.008"
     width="908.46899"
     y="-22.504"
     x="-54.234001" /><g
     id="glows"><radialGradient
       id="SVGID_3_"
       cx="483.2676"
       cy="1375.8398"
       r="93.7261"
       gradientTransform="matrix(1 0 0 1 -220.6406 -1321.8398)"
       gradientUnits="userSpaceOnUse"><stop
         offset="0"
         style="stop-color:#FFFCDD"
         id="stop26" /><stop
         offset="1"
         style="stop-color:#FEF9C8;stop-opacity:0"
         id="stop28" /></radialGradient><circle
       opacity="0.2"
       fill="url(#SVGID_3_)"
       enable-background="new    "
       cx="262.627"
       cy="54"
       r="93.726"
       id="circle30" /><radialGradient
       id="SVGID_4_"
       cx="409.0801"
       cy="1379.752"
       r="74.1885"
       gradientTransform="matrix(1 0 0 1 -220.6406 -1321.8398)"
       gradientUnits="userSpaceOnUse"><stop
         offset="0"
         style="stop-color:#99CCCC"
         id="stop33" /><stop
         offset="1"
         style="stop-color:#FEF9C8;stop-opacity:0"
         id="stop35" /></radialGradient><circle
       opacity="0.2"
       fill="url(#SVGID_4_)"
       enable-background="new    "
       cx="188.44"
       cy="57.913"
       r="74.188"
       id="circle37" /><radialGradient
       id="SVGID_5_"
       cx="157.3257"
       cy="1352.9355"
       r="98.3567"
       gradientTransform="matrix(1 0 0 1 -220.6406 -1321.8398)"
       gradientUnits="userSpaceOnUse"><stop
         offset="0"
         style="stop-color:#FFFCDD"
         id="stop40" /><stop
         offset="1"
         style="stop-color:#FEF9C8;stop-opacity:0"
         id="stop42" /></radialGradient><circle
       opacity="0.1"
       fill="url(#SVGID_5_)"
       enable-background="new    "
       cx="-63.315"
       cy="31.095"
       r="98.357"
       id="circle44" /><radialGradient
       id="SVGID_6_"
       cx="335.8037"
       cy="1376.0801"
       r="98.3555"
       gradientTransform="matrix(1 0 0 1 -220.6406 -1321.8398)"
       gradientUnits="userSpaceOnUse"><stop
         offset="0"
         style="stop-color:#FFFCDD"
         id="stop47" /><stop
         offset="1"
         style="stop-color:#FEF9C8;stop-opacity:0"
         id="stop49" /></radialGradient><circle
       opacity="0.1"
       fill="url(#SVGID_6_)"
       enable-background="new    "
       cx="115.163"
       cy="54.24"
       r="98.356"
       id="circle51" /></g><g
     id="g4380"><path
       enable-background="new    "
       d="m 521.219,-32.511 c 0,0 25.727,25.28 7.91,59.275 C 499.016,84.229 431.016,87.897 325.257,61.568 138.904,15.175 123.272,81.086 123.843,87.383 l 8.932,11.236 C 132.202,92.32 147.833,26.412 334.189,72.806 439.944,99.132 507.943,95.464 538.057,38.001 555.876,4.007 521.219,-32.511 521.219,-32.511"
       id="path59"
       style="opacity:0.6;fill:url(#radialGradient4665);fill-opacity:1.0"
       inkscape:connector-curvature="0" /><path
       enable-background="new    "
       d="m 65.285,171.85 c 0,0 -26.448,-24.523 -9.627,-59.021 C 84.092,54.516 151.959,48.879 258.434,72.13 446.055,113.095 459.767,46.76 459.015,40.481 l -9.254,-10.974 c 0.757,6.28 -12.958,72.609 -200.58,31.647 C 142.707,37.904 74.844,43.545 46.408,101.854 29.583,136.352 65.285,171.85 65.285,171.85"
       id="path66"
       style="opacity:0.5;fill:url(#SVGID_8_);fill-opacity:1.0"
       inkscape:connector-curvature="0" /></g><g
     id="debian"><g
       id="g69"><path
         fill="#FFFFFF"
         d="M403.851,33.8c-0.045,0.047-0.045,7.508-0.138,9.455c-0.092,1.575-0.232,4.959-3.568,4.959    c-3.43,0-4.264-3.938-4.541-5.652c-0.324-1.899-0.324-3.48-0.324-4.172c0-2.226,0.141-8.437,5.375-8.437    c1.576,0,2.456,0.465,3.151,0.834L403.851,33.8z M390.415,39.271c0,13.068,6.951,13.068,7.972,13.068    c2.872,0,4.726-1.576,5.513-4.309l0.093,4.123c0.881-0.047,1.764-0.141,3.197-0.141c0.51,0,0.926,0,1.298,0.049    c0.371,0,0.741,0.045,1.158,0.092c-0.741-1.482-1.297-4.818-1.297-12.052c0-7.044,0-18.953,0.603-22.567    c-1.668,0.789-3.104,1.299-6.257,1.576c1.251,1.344,1.251,2.039,1.251,8.153c-0.879-0.276-1.992-0.602-3.891-0.602    C391.758,26.664,390.415,33.893,390.415,39.271"
         id="path71" /><path
         fill="#FFFFFF"
         d="M415.543,36.903c0.047-3.845,0.836-7.274,4.125-7.274c3.613,0,3.891,3.984,3.799,7.274H415.543z     M428.054,37.369c0-5.422-1.065-10.752-7.923-10.752c-9.452,0-9.452,10.475-9.452,12.697c0,9.408,4.216,13.115,11.306,13.115    c3.149,0,4.682-0.461,5.516-0.693c-0.047-1.668,0.186-2.734,0.465-4.17c-0.977,0.604-2.227,1.391-5.006,1.391    c-7.229,0-7.321-6.584-7.321-8.854h12.327L428.054,37.369"
         id="path73" /><path
         fill="#FFFFFF"
         d="M443.129,39.36c0,4.312-0.787,10.105-6.162,10.105c-0.742,0-1.668-0.141-2.271-0.277    c-0.094-1.668-0.094-4.542-0.094-7.88c0-3.985,0.416-6.067,0.742-7.092c0.972-3.289,3.148-3.334,3.564-3.334    C442.434,30.882,443.129,35.748,443.129,39.36z M429.83,44.414c0,3.431,0,5.376-0.556,6.858c1.899,0.74,4.263,1.156,7.091,1.156    c1.809,0,7.043,0,9.869-5.791c1.344-2.688,1.809-6.306,1.809-9.04c0-1.669-0.188-5.329-1.529-7.646    c-1.297-2.176-3.383-3.289-5.605-3.289c-4.447,0-5.744,3.707-6.438,5.607c0-2.363,0.045-10.611,0.414-14.828    c-3.01,1.391-4.865,1.62-6.856,1.807c1.81,0.74,1.81,3.801,1.81,13.764v11.402"
         id="path75" /><path
         fill="#FFFFFF"
         d="M456.949,52.153c-0.928-0.141-1.578-0.232-2.922-0.232c-1.479,0-2.502,0.094-3.564,0.232    c0.463-0.881,0.646-1.299,0.787-4.311c0.186-4.126,0.23-15.157-0.094-17.475c-0.23-1.763-0.646-2.039-1.297-2.502    c3.799-0.371,4.863-0.648,6.625-1.482c-0.369,2.037-0.418,3.06-0.418,6.163C455.975,48.54,455.928,50.253,456.949,52.153"
         id="path77" /><path
         fill="#FFFFFF"
         d="M471.787,39.034c-0.092,2.922-0.139,4.962-0.928,6.584c-0.975,2.086-2.596,2.688-3.799,2.688    c-2.783,0-3.385-2.313-3.385-4.587c0-4.356,3.895-4.685,5.65-4.685H471.787z M459.043,44.738c0,2.921,0.881,5.839,3.477,7.091    c1.158,0.51,2.316,0.51,2.688,0.51c4.266,0,5.699-3.15,6.58-5.098c-0.047,2.039,0,3.289,0.141,4.912    c0.834-0.047,1.668-0.141,3.061-0.141c0.787,0,1.527,0.094,2.314,0.141c-0.511-0.787-0.787-1.252-0.93-3.061    c-0.092-1.76-0.092-3.52-0.092-5.979l0.047-9.455c0-3.524-0.928-6.999-7.879-6.999c-4.586,0-7.271,1.391-8.617,2.086    c0.559,1.02,1.021,1.897,1.438,3.894c1.809-1.577,4.172-2.411,6.578-2.411c3.85,0,3.85,2.55,3.85,6.164    c-0.881-0.045-1.623-0.138-2.875-0.138C462.936,36.257,459.043,38.524,459.043,44.738"
         id="path79" /><path
         fill="#FFFFFF"
         d="M498.477,47.567c0.047,1.576,0.047,3.244,0.695,4.59c-1.021-0.094-1.623-0.232-3.521-0.232    c-1.113,0-1.715,0.096-2.596,0.232c0.184-0.604,0.279-0.834,0.371-1.623c0.139-1.064,0.23-4.635,0.23-5.888v-5.006    c0-2.18,0-5.332-0.143-6.44c-0.092-0.787-0.32-2.919-3.012-2.919c-2.643,0-3.521,1.944-3.848,3.521    c-0.369,1.621-0.369,3.384-0.369,10.243c0.045,5.935,0.045,6.487,0.51,8.11c-0.787-0.092-1.762-0.186-3.148-0.186    c-1.113,0-1.854,0.045-2.779,0.186c0.324-0.742,0.512-1.113,0.604-3.707c0.094-2.549,0.277-15.066-0.143-18.029    c-0.229-1.809-0.693-2.225-1.201-2.688c3.754-0.186,4.955-0.788,6.115-1.389v4.91c0.557-1.438,1.713-4.635,6.35-4.635    c5.793,0,5.838,4.217,5.885,6.997V47.567"
         id="path81" /><path
         fill="#FFFFFF"
         d="M457.34,19.828l-3.838,3.836l-3.836-3.836l3.836-3.836L457.34,19.828"
         id="path83" /></g><g
       id="_x39__1_"><g
         id="g86"><g
           id="g88"><path
             fill="#FFFFFF"
             d="M525.064,45.638c-6.785,0.199-12.678-5.749-12.678-12.195c0-7.138,5.166-13.407,12.885-13.407      c7.715,0,12.475,6.269,12.475,15.902c0,8.308-2.78,14.11-6.5,17.711c-2.897,2.844-6.905,4.584-10.969,5.051      c-1.854,0.289-3.479,0.348-4.699,0.289c0,0,17.33-5.209,17.875-19.468c0.119-3.19,2.322-15.885-8.59-15.595      c-4.35,0.115-7.43,3.83-7.43,9.17c0,4.698,1.443,8.029,6.207,9.196c3.328,0.814,5.416-0.475,7.883-6.501      C531.523,35.791,532.615,45.416,525.064,45.638z"
             id="path90" /></g></g></g></g><g
     id="rounds_1_"><circle
       enable-background="new    "
       cx="87.5"
       cy="41.902"
       r="2.938"
       id="circle93"
       fill="#FFFFFF"
       opacity="0.2" /><circle
       enable-background="new    "
       cx="51.335"
       cy="63.824"
       r="2.938"
       id="circle95"
       fill="#FFFFFF"
       opacity="0.1" /><circle
       enable-background="new    "
       cx="138"
       cy="32.053"
       r="2.938"
       id="circle97"
       fill="#FFFFFF"
       opacity="0.3" /></g></svg>