<?xml version="1.0" encoding="UTF-8" standalone="no"?>
<svg
   xmlns:dc="http://purl.org/dc/elements/1.1/"
   xmlns:cc="http://creativecommons.org/ns#"
   xmlns:rdf="http://www.w3.org/1999/02/22-rdf-syntax-ns#"
   xmlns:svg="http://www.w3.org/2000/svg"
   xmlns="http://www.w3.org/2000/svg"
   xmlns:sodipodi="http://sodipodi.sourceforge.net/DTD/sodipodi-0.dtd"
   xmlns:inkscape="http://www.inkscape.org/namespaces/inkscape"
   version="1.1"
   x="0px"
   y="0px"
   width="800px"
   height="75px"
   viewBox="0 0 800 75"
   enable-background="new 0 0 800 75"
   xml:space="preserve"
   id="svg2"
   inkscape:version="0.48.5 r10040"
   sodipodi:docname="logo_debian_lines.svg"><metadata
     id="metadata169"><rdf:RDF><cc:Work
         rdf:about=""><dc:format>image/svg+xml</dc:format><dc:type
           rdf:resource="http://purl.org/dc/dcmitype/StillImage" /><dc:title></dc:title></cc:Work></rdf:RDF></metadata><defs
     id="defs167" /><sodipodi:namedview
     pagecolor="#ffffff"
     bordercolor="#666666"
     borderopacity="1"
     objecttolerance="10"
     gridtolerance="10"
     guidetolerance="10"
     inkscape:pageopacity="0"
     inkscape:pageshadow="2"
     inkscape:window-width="1366"
     inkscape:window-height="721"
     id="namedview165"
     showgrid="false"
     inkscape:zoom="1.5379572"
     inkscape:cx="389.78874"
     inkscape:cy="-18.791672"
     inkscape:window-x="-2"
     inkscape:window-y="-3"
     inkscape:window-maximized="1"
     inkscape:current-layer="svg2" /><g
     id="Layer_1"><radialGradient
       id="SVGID_1_"
       cx="763.0693"
       cy="-44.3306"
       r="421.2066"
       gradientUnits="userSpaceOnUse"><stop
         offset="0"
         style="stop-color:#489291"
         id="stop6" /><stop
         offset="0.0424"
         style="stop-color:#448B8C"
         id="stop8" /><stop
         offset="0.3678"
         style="stop-color:#2B606A"
         id="stop10" /><stop
         offset="0.6473"
         style="stop-color:#184655"
         id="stop12" /><stop
         offset="0.8671"
         style="stop-color:#0B374A"
         id="stop14" /><stop
         offset="1"
         style="stop-color:#063246"
         id="stop16" /></radialGradient><rect
       x="-7"
       y="-12.833"
       clip-rule="evenodd"
       width="807"
       height="88.908"
       id="rect18"
       fill-rule="evenodd"
       fill="url(#SVGID_1_)" /></g><g
     id="Layer_2"><g
       id="g21"><radialGradient
         id="SVGID_2_"
         cx="635.8574"
         cy="40.7656"
         r="1.0978"
         gradientTransform="matrix(1.0725 0 0 0.9931 -28.71 -1.5776)"
         gradientUnits="userSpaceOnUse"><stop
           offset="0"
           style="stop-color:#FFF1E9"
           id="stop24" /><stop
           offset="1"
           style="stop-color:#FFFFFF;stop-opacity:0.2"
           id="stop26" /></radialGradient><path
         d="M652.063,38.578c-1.114,0.016,0.212,0.572,1.667,0.798c0.401-0.315,0.767-0.632,1.091-0.939    C653.914,38.656,652.992,38.662,652.063,38.578"
         id="path28"
         fill="url(#SVGID_2_)" /><radialGradient
         id="SVGID_3_"
         cx="640.6348"
         cy="37.4502"
         r="1.243"
         gradientTransform="matrix(1.0725 0 0 0.9931 -28.71 -1.5776)"
         gradientUnits="userSpaceOnUse"><stop
           offset="0"
           style="stop-color:#FFF1E9"
           id="stop31" /><stop
           offset="1"
           style="stop-color:#FFFFFF;stop-opacity:0.2"
           id="stop33" /></radialGradient><path
         d="M658.047,37.089c0.664-0.915,1.148-1.917,1.317-2.951c-0.148,0.737-0.55,1.375-0.926,2.046    c-2.085,1.311-0.197-0.776-0.002-1.57C656.195,37.429,658.127,36.303,658.047,37.089"
         id="path35"
         fill="url(#SVGID_3_)" /><radialGradient
         id="SVGID_4_"
         cx="642.1484"
         cy="32.6152"
         r="0.6035"
         gradientTransform="matrix(1.0725 0 0 0.9931 -28.71 -1.5776)"
         gradientUnits="userSpaceOnUse"><stop
           offset="0"
           style="stop-color:#FFF1E9"
           id="stop38" /><stop
           offset="1"
           style="stop-color:#FFFFFF;stop-opacity:0.2"
           id="stop40" /></radialGradient><path
         d="M660.257,31.352c0.134-2.004-0.396-1.371-0.574-0.606C659.89,30.854,660.056,32.159,660.257,31.352    "
         id="path42"
         fill="url(#SVGID_4_)" /><radialGradient
         id="SVGID_5_"
         cx="631.5801"
         cy="5.7422"
         r="0.548"
         gradientTransform="matrix(1.0725 0 0 0.9931 -28.71 -1.5776)"
         gradientUnits="userSpaceOnUse"><stop
           offset="0"
           style="stop-color:#FFF1E9"
           id="stop45" /><stop
           offset="1"
           style="stop-color:#FFFFFF;stop-opacity:0.2"
           id="stop47" /></radialGradient><path
         d="M647.834,3.959c0.596,0.107,1.286,0.188,1.188,0.331C649.674,4.147,649.821,4.016,647.834,3.959"
         id="path49"
         fill="url(#SVGID_5_)" /><radialGradient
         id="SVGID_6_"
         cx="631.7354"
         cy="5.9521"
         r="0.1415"
         gradientTransform="matrix(1.0725 0 0 0.9931 -28.71 -1.5776)"
         gradientUnits="userSpaceOnUse"><stop
           offset="0"
           style="stop-color:#FFF1E9"
           id="stop52" /><stop
           offset="1"
           style="stop-color:#FFFFFF;stop-opacity:0.2"
           id="stop54" /></radialGradient><path
         d="M649.022,4.29l-0.419,0.086l0.392-0.035L649.022,4.29"
         id="path56"
         fill="url(#SVGID_6_)" /><radialGradient
         id="SVGID_7_"
         cx="630.0234"
         cy="38.7598"
         r="29.6087"
         gradientTransform="matrix(1.0725 0 0 0.9931 -28.71 -1.5776)"
         gradientUnits="userSpaceOnUse"><stop
           offset="0"
           style="stop-color:#FFF1E9"
           id="stop59" /><stop
           offset="1"
           style="stop-color:#FFFFFF;stop-opacity:0.2"
           id="stop61" /></radialGradient><path
         d="M667.578,32.112c0.066,1.8-0.527,2.673-1.063,4.219l-0.964,0.48    c-0.788,1.529,0.076,0.97-0.487,2.186c-1.232,1.094-3.736,3.42-4.538,3.631c-0.585-0.011,0.397-0.69,0.524-0.954    c-1.646,1.13-1.321,1.697-3.842,2.383l-0.074-0.163c-6.216,2.918-14.851-2.866-14.735-10.76c-0.068,0.502-0.188,0.377-0.327,0.58    c-0.32-4.062,1.879-8.14,5.589-9.805c3.628-1.793,7.881-1.057,10.481,1.36c-1.428-1.866-4.27-3.845-7.638-3.66    c-3.298,0.052-6.385,2.144-7.414,4.415c-1.69,1.063-1.887,4.095-2.624,4.65c-0.99,7.27,1.863,10.409,6.693,14.104    c0.76,0.512,0.215,0.589,0.317,0.979c-1.605-0.75-3.074-1.883-4.281-3.268c0.641,0.936,1.333,1.847,2.227,2.563    c-1.514-0.512-3.535-3.661-4.124-3.788c2.607,4.66,10.579,8.173,14.754,6.43c-1.931,0.071-4.386,0.04-6.556-0.76    c-0.911-0.47-2.152-1.438-1.928-1.62c5.695,2.124,11.581,1.608,16.51-2.335c1.254-0.976,2.624-2.634,3.02-2.656    c-0.596,0.894,0.103,0.429-0.355,1.219c1.249-2.01-0.544-0.818,1.291-3.473l0.678,0.931c-0.252-1.668,2.078-3.697,1.842-6.337    c0.534-0.809,0.596,0.869,0.028,2.727c0.787-2.061,0.208-2.392,0.409-4.093c0.219,0.571,0.506,1.179,0.652,1.781    c-0.512-1.991,0.526-3.354,0.782-4.511c-0.252-0.112-0.79,0.88-0.913-1.473c0.018-1.021,0.286-0.535,0.389-0.788    c-0.201-0.115-0.729-0.898-1.051-2.4c0.233-0.354,0.622,0.915,0.939,0.968c-0.203-1.195-0.555-2.106-0.569-3.022    c-0.924-1.93-0.326,0.256-1.077-0.829c-0.983-3.064,0.817-0.711,0.939-2.104c1.491,2.159,2.342,5.502,2.731,6.886    c-0.298-1.688-0.778-3.323-1.366-4.906c0.453,0.189-0.73-3.474,0.588-1.048c-1.408-5.172-6.026-10.006-10.276-12.272    c0.52,0.474,1.175,2.309,0.941,2.402c-2.115-1.256-1.743-2.592-2.046-3.123c-1.722-0.698-1.835,0.057-2.975,0.001    c-3.245-1.717-3.87-1.534-6.857-2.612l0.137,0.634c-2.15-0.715-2.505,0.271-4.828,0.002c-0.143-0.11,0.744-0.398,1.474-0.505    c-2.078,0.273-1.981-0.409-4.015,0.075c0.501-0.352,1.03-0.583,1.565-0.882c-1.695,0.103-4.046,0.984-3.32,0.184    c-2.766,1.23-7.676,2.959-10.431,5.539l-0.087-0.578c-1.264,1.512-5.506,4.518-5.844,6.477l-0.338,0.079    c-0.657,1.11-1.082,2.369-1.604,3.51c-0.859,1.463-1.26,0.563-1.137,0.792c-1.69,3.42-2.53,6.295-3.255,8.652    c0.517,0.772,0.013,4.642,0.208,7.74c-0.85,15.3,10.756,30.153,23.444,33.584c1.858,0.665,4.624,0.641,6.976,0.707    c-2.775-0.792-3.135-0.419-5.836-1.361c-1.95-0.914-2.378-1.962-3.76-3.158l0.547,0.964c-2.708-0.957-1.576-1.186-3.78-1.881    l0.585-0.761c-0.878-0.067-2.325-1.478-2.722-2.259l-0.959,0.039c-1.157-1.423-1.771-2.446-1.726-3.239l-0.31,0.551    c-0.352-0.602-4.247-5.331-2.227-4.229c-0.374-0.344-0.874-0.557-1.415-1.54l0.412-0.469c-0.973-1.248-1.789-2.849-1.728-3.382    c0.518,0.698,0.878,0.83,1.234,0.949c-2.455-6.08-2.592-0.335-4.453-6.189l0.395-0.031c-0.303-0.453-0.485-0.945-0.728-1.429    l0.171-1.704c-1.768-2.039-0.494-8.674-0.24-12.311c0.178-1.48,1.477-3.055,2.465-5.525l-0.603-0.103    c1.151-2.003,6.568-8.044,9.077-7.733c1.217-1.524-0.241-0.006-0.479-0.388c2.67-2.759,3.51-1.95,5.312-2.446    c1.943-1.151-1.669,0.449-0.747-0.439c3.359-0.857,2.381-1.948,6.763-2.382c0.462,0.263-1.072,0.405-1.458,0.747    c2.799-1.367,8.856-1.057,12.792,0.758c4.565,2.129,9.695,8.426,9.898,14.35l0.23,0.061c-0.118,2.355,0.36,5.078-0.467,7.58    L667.578,32.112"
         id="path63"
         fill="url(#SVGID_7_)" /><radialGradient
         id="SVGID_8_"
         cx="624.3203"
         cy="43.8008"
         r="1.4885"
         gradientTransform="matrix(1.0725 0 0 0.9931 -28.71 -1.5776)"
         gradientUnits="userSpaceOnUse"><stop
           offset="0"
           style="stop-color:#FFF1E9"
           id="stop66" /><stop
           offset="1"
           style="stop-color:#FFFFFF;stop-opacity:0.2"
           id="stop68" /></radialGradient><path
         d="M639.893,40.106l-0.156,0.778c0.732,0.993,1.315,2.07,2.249,2.848    C641.313,42.421,640.813,41.878,639.893,40.106"
         id="path70"
         fill="url(#SVGID_8_)" /><radialGradient
         id="SVGID_9_"
         cx="624.7861"
         cy="41.6797"
         r="0.9656"
         gradientTransform="matrix(1.0725 0 0 0.9931 -28.71 -1.5776)"
         gradientUnits="userSpaceOnUse"><stop
           offset="0"
           style="stop-color:#FFF1E9"
           id="stop73" /><stop
           offset="1"
           style="stop-color:#FFFFFF;stop-opacity:0.2"
           id="stop75" /></radialGradient><path
         d="M641.625,40.038c-0.387-0.428-0.617-0.944-0.873-1.458c0.245,0.902,0.749,1.679,1.217,2.467    L641.625,40.038"
         id="path77"
         fill="url(#SVGID_9_)" /><radialGradient
         id="SVGID_10_"
         cx="652.6318"
         cy="38.5313"
         r="2.4496"
         gradientTransform="matrix(1.0725 0 0 0.9931 -28.71 -1.5776)"
         gradientUnits="userSpaceOnUse"><stop
           offset="0"
           style="stop-color:#FFF1E9"
           id="stop80" /><stop
           offset="1"
           style="stop-color:#FFFFFF;stop-opacity:0.2"
           id="stop82" /></radialGradient><path
         d="M672.277,33.387l-0.163,0.41c-0.3,2.129-0.948,4.236-1.942,6.189    C671.27,37.925,671.979,35.67,672.277,33.387"
         id="path84"
         fill="url(#SVGID_10_)" /><radialGradient
         id="SVGID_11_"
         cx="632.0547"
         cy="4.8711"
         r="1.0302"
         gradientTransform="matrix(1.0725 0 0 0.9931 -28.71 -1.5776)"
         gradientUnits="userSpaceOnUse"><stop
           offset="0"
           style="stop-color:#FFF1E9"
           id="stop87" /><stop
           offset="1"
           style="stop-color:#FFFFFF;stop-opacity:0.2"
           id="stop89" /></radialGradient><path
         d="M648.056,3.425c0.753-0.275,1.853-0.151,2.652-0.332c-1.043,0.086-2.079,0.139-3.104,0.271    L648.056,3.425"
         id="path91"
         fill="url(#SVGID_11_)" /><radialGradient
         id="SVGID_12_"
         cx="606.4395"
         cy="20.0361"
         r="0.689"
         gradientTransform="matrix(1.0725 0 0 0.9931 -28.71 -1.5776)"
         gradientUnits="userSpaceOnUse"><stop
           offset="0"
           style="stop-color:#FFF1E9"
           id="stop94" /><stop
           offset="1"
           style="stop-color:#FFFFFF;stop-opacity:0.2"
           id="stop96" /></radialGradient><path
         d="M621.59,17.473c0.174,1.606-1.21,2.228,0.307,1.168C622.708,16.814,621.579,18.138,621.59,17.473"
         id="path98"
         fill="url(#SVGID_12_)" /><radialGradient
         id="SVGID_13_"
         cx="604.9219"
         cy="25.4897"
         r="0.8529"
         gradientTransform="matrix(1.0725 0 0 0.9931 -28.71 -1.5776)"
         gradientUnits="userSpaceOnUse"><stop
           offset="0"
           style="stop-color:#FFF1E9"
           id="stop101" /><stop
           offset="1"
           style="stop-color:#FFFFFF;stop-opacity:0.2"
           id="stop103" /></radialGradient><path
         d="M619.808,24.901c0.35-1.069,0.412-1.712,0.546-2.331C619.39,23.802,619.909,24.064,619.808,24.901    "
         id="path105"
         fill="url(#SVGID_13_)" /></g><linearGradient
       id="SVGID_14_"
       gradientUnits="userSpaceOnUse"
       x1="619.4482"
       y1="36.2988"
       x2="768.5439"
       y2="36.2988"><stop
         offset="0"
         style="stop-color:#FFFFFF;stop-opacity:0.5"
         id="stop108" /><stop
         offset="1"
         style="stop-color:#FFFFFF;stop-opacity:0"
         id="stop110" /></linearGradient><path
       stroke-miterlimit="10"
       d="M768.044,36.299c0,28.975-33.151,52.463-74.048,52.463   s-74.048-23.488-74.048-52.463c0-1.958,0.151-3.891,0.446-5.793c4.069-26.248,35.47-46.67,73.602-46.67   C734.893-16.165,768.044,7.324,768.044,36.299z"
       id="path112"
       stroke="url(#SVGID_14_)"
       fill="none" /><linearGradient
       id="SVGID_15_"
       gradientUnits="userSpaceOnUse"
       x1="633.2646"
       y1="15.0615"
       x2="675.9014"
       y2="15.0615"><stop
         offset="0"
         style="stop-color:#FFFFFF;stop-opacity:0.5"
         id="stop115" /><stop
         offset="1"
         style="stop-color:#FFFFFF;stop-opacity:0"
         id="stop117" /></linearGradient><ellipse
       stroke-miterlimit="10"
       cx="654.583"
       cy="15.062"
       rx="20.818"
       ry="31.837"
       id="ellipse119"
       stroke="url(#SVGID_15_)"
       fill="none" /><radialGradient
       id="SVGID_16_"
       cx="619.042"
       cy="45.498"
       r="79.176"
       gradientUnits="userSpaceOnUse"><stop
         offset="0"
         style="stop-color:#FFFFFF;stop-opacity:0.5"
         id="stop122" /><stop
         offset="1"
         style="stop-color:#FFFFFF;stop-opacity:0"
         id="stop124" /></radialGradient><line
       stroke-miterlimit="10"
       x1="619.042"
       y1="-66.473"
       x2="619.042"
       y2="157.469"
       id="line126"
       stroke="url(#SVGID_16_)"
       fill="none" /><radialGradient
       id="SVGID_17_"
       cx="624.1367"
       cy="34.5581"
       r="75.8829"
       gradientUnits="userSpaceOnUse"><stop
         offset="0"
         style="stop-color:#FFFFFF;stop-opacity:0.5"
         id="stop129" /><stop
         offset="1"
         style="stop-color:#FFFFFF;stop-opacity:0"
         id="stop131" /></radialGradient><line
       stroke-miterlimit="10"
       x1="516.823"
       y1="34.558"
       x2="731.45"
       y2="34.558"
       id="line133"
       stroke="url(#SVGID_17_)"
       fill="none" /><linearGradient
       id="SVGID_18_"
       gradientUnits="userSpaceOnUse"
       x1="880.2734"
       y1="51.7158"
       x2="954.291"
       y2="51.7158"
       gradientTransform="matrix(0.5366 0 0 0.4054 158.2737 24.6519)"><stop
         offset="0"
         style="stop-color:#FFFFFF;stop-opacity:0.5"
         id="stop136" /><stop
         offset="1"
         style="stop-color:#FFFFFF;stop-opacity:0"
         id="stop138" /></linearGradient><ellipse
       stroke-miterlimit="10"
       cx="650.487"
       cy="45.617"
       rx="19.591"
       ry="24.346"
       id="ellipse140"
       stroke="url(#SVGID_18_)"
       fill="none" /></g><g
     id="Layer_3"><text
       transform="matrix(1 0 0 1 165.1289 40.4727)"
       display="none"
       id="text143"><tspan
         x="0"
         y="0"
         display="inline"
         font-size="36"
         id="tspan145"
         font-family="'Poppl-Laudatio-Condensed'"
         fill="#FFFFFF"
         opacity="0.8">debian </tspan></text>
<g
       id="g147"><path
         d="M718.009,32.63c-0.025,0.027-0.025,4.273-0.079,5.382c-0.052,0.896-0.132,2.823-2.031,2.823    c-1.952,0-2.427-2.243-2.585-3.22c-0.184-1.081-0.184-1.979-0.184-2.374c0-1.267,0.079-4.802,3.06-4.802    c0.896,0,1.398,0.265,1.794,0.475L718.009,32.63z M710.359,35.743c0,7.44,3.957,7.44,4.538,7.44c1.635,0,2.69-0.898,3.138-2.453    l0.053,2.348c0.502-0.029,1.003-0.08,1.82-0.08c0.29,0,0.527,0,0.739,0.025c0.211,0,0.421,0.025,0.659,0.055    c-0.422-0.844-0.738-2.744-0.738-6.862c0-4.009,0-10.788,0.342-12.846c-0.948,0.449-1.768,0.739-3.561,0.897    c0.711,0.765,0.711,1.161,0.711,4.642c-0.5-0.157-1.133-0.342-2.214-0.342C711.124,28.567,710.359,32.683,710.359,35.743"
         id="path149"
         fill="#FFFFFF"
         opacity="0.8" /><path
         d="M724.665,34.397c0.026-2.19,0.476-4.142,2.348-4.142c2.058,0,2.215,2.268,2.162,4.142    H724.665z M731.787,34.662c0-3.087-0.606-6.121-4.511-6.121c-5.38,0-5.38,5.963-5.38,7.228c0,5.354,2.399,7.466,6.435,7.466    c1.794,0,2.665-0.264,3.14-0.395c-0.025-0.951,0.105-1.557,0.265-2.375c-0.555,0.344-1.267,0.793-2.85,0.793    c-4.115,0-4.168-3.749-4.168-5.042h7.018L731.787,34.662"
         id="path151"
         fill="#FFFFFF"
         opacity="0.8" /><path
         d="M740.368,35.795c0,2.453-0.448,5.753-3.508,5.753c-0.423,0-0.949-0.082-1.292-0.16    c-0.054-0.951-0.054-2.586-0.054-4.486c0-2.269,0.237-3.454,0.423-4.036c0.554-1.873,1.794-1.898,2.03-1.898    C739.973,30.969,740.368,33.739,740.368,35.795z M732.799,38.671c0,1.953,0,3.062-0.316,3.903c1.08,0.424,2.426,0.66,4.036,0.66    c1.027,0,4.009,0,5.617-3.297c0.766-1.531,1.029-3.589,1.029-5.146c0-0.95-0.105-3.033-0.871-4.353    c-0.738-1.238-1.925-1.872-3.19-1.872c-2.533,0-3.271,2.11-3.666,3.191c0-1.345,0.025-6.04,0.236-8.44    c-1.714,0.792-2.771,0.922-3.903,1.029c1.028,0.421,1.028,2.163,1.028,7.835V38.671"
         id="path153"
         fill="#FFFFFF"
         opacity="0.8" /><path
         d="M748.236,43.078c-0.528-0.08-0.898-0.133-1.664-0.133c-0.843,0-1.424,0.053-2.03,0.133    c0.264-0.504,0.369-0.742,0.448-2.455c0.105-2.348,0.133-8.627-0.052-9.946c-0.133-1.003-0.37-1.16-0.739-1.424    c2.163-0.211,2.77-0.369,3.772-0.844c-0.211,1.159-0.238,1.741-0.238,3.508C747.682,41.02,747.654,41.996,748.236,43.078"
         id="path155"
         fill="#FFFFFF"
         opacity="0.8" /><path
         d="M756.683,35.61c-0.053,1.662-0.079,2.824-0.528,3.746c-0.554,1.188-1.477,1.531-2.163,1.531    c-1.584,0-1.926-1.318-1.926-2.611c0-2.479,2.217-2.666,3.218-2.666H756.683z M749.428,38.855c0,1.662,0.502,3.324,1.979,4.037    c0.659,0.291,1.318,0.291,1.53,0.291c2.427,0,3.244-1.795,3.746-2.903c-0.027,1.161,0,1.874,0.079,2.798    c0.475-0.029,0.949-0.08,1.741-0.08c0.448,0,0.87,0.051,1.317,0.08c-0.29-0.449-0.447-0.715-0.527-1.742    c-0.053-1.002-0.053-2.006-0.053-3.404l0.027-5.381c0-2.006-0.528-3.984-4.485-3.984c-2.611,0-4.141,0.792-4.906,1.188    c0.317,0.58,0.581,1.08,0.818,2.216c1.029-0.897,2.375-1.372,3.745-1.372c2.191,0,2.191,1.452,2.191,3.508    c-0.502-0.025-0.925-0.078-1.638-0.078C751.644,34.029,749.428,35.32,749.428,38.855"
         id="path157"
         fill="#FFFFFF"
         opacity="0.8" /><path
         d="M771.876,40.465c0.027,0.898,0.027,1.848,0.396,2.613c-0.582-0.053-0.925-0.133-2.004-0.133    c-0.635,0-0.978,0.053-1.479,0.133c0.105-0.344,0.159-0.475,0.212-0.924c0.079-0.605,0.132-2.639,0.132-3.352v-2.849    c0-1.24,0-3.035-0.08-3.667c-0.053-0.448-0.184-1.661-1.715-1.661c-1.503,0-2.004,1.107-2.189,2.004    c-0.21,0.923-0.21,1.926-0.21,5.83c0.025,3.378,0.025,3.694,0.289,4.618c-0.448-0.055-1.002-0.107-1.792-0.107    c-0.635,0-1.057,0.027-1.583,0.107c0.185-0.422,0.291-0.635,0.343-2.111c0.054-1.451,0.159-8.575-0.08-10.263    c-0.132-1.029-0.396-1.266-0.686-1.53c2.137-0.105,2.822-0.449,3.482-0.791v2.795c0.316-0.819,0.976-2.639,3.614-2.639    c3.297,0,3.323,2.4,3.35,3.982V40.465"
         id="path159"
         fill="#FFFFFF"
         opacity="0.8" /><path
         d="M748.458,24.676l-2.185,2.184l-2.184-2.184l2.184-2.184L748.458,24.676"
         id="path161"
         fill="#FFFFFF"
         opacity="0.8" /></g><text
       transform="matrix(1 0 0 1 774.5 38.3965)"
       font-size="14.8477"
       id="text163"
       font-family="'Poppl-Laudatio-Condensed'"
       fill="#FFFFFF"
       opacity="0.8">8</text>
</g></svg>