<?xml version="1.0" encoding="utf-8"?>
<!-- Generator: Adobe Illustrator 16.0.0, SVG Export Plug-In . SVG Version: 6.00 Build 0)  -->
<!DOCTYPE svg PUBLIC "-//W3C//DTD SVG 1.1//EN" "http://www.w3.org/Graphics/SVG/1.1/DTD/svg11.dtd">
<svg version="1.1" id="root_1_" xmlns="http://www.w3.org/2000/svg" xmlns:xlink="http://www.w3.org/1999/xlink" x="0px" y="0px"
	 width="800px" height="75px" viewBox="0 0 800 75" enable-background="new 0 0 800 75" xml:space="preserve">
<g id="background_1_">
	
		<linearGradient id="SVGID_1_" gradientUnits="userSpaceOnUse" x1="-2653.062" y1="-1152.458" x2="-1736.9565" y2="-1152.458" gradientTransform="matrix(1 0 0 1 2596.3594 1189.958)">
		<stop  offset="0" style="stop-color:#133456"/>
		<stop  offset="0.5025" style="stop-color:#7C9999"/>
		<stop  offset="1" style="stop-color:#203F5E"/>
	</linearGradient>
	<rect x="-58.91" y="-22.504" fill="url(#SVGID_1_)" width="917.82" height="120.008"/>
	
		<radialGradient id="SVGID_2_" cx="568.9668" cy="1322.4688" r="286.0156" gradientTransform="matrix(1.1356 0 0 1 -246.0914 -1284.9688)" gradientUnits="userSpaceOnUse">
		<stop  offset="0" style="stop-color:#E4C8A5;stop-opacity:0.5"/>
		<stop  offset="0.1429" style="stop-color:#AEAB95;stop-opacity:0.4372"/>
		<stop  offset="0.3797" style="stop-color:#5A8079;stop-opacity:0.3331"/>
		<stop  offset="0.4877" style="stop-color:#396D6E;stop-opacity:0.2857"/>
	</radialGradient>
	<rect x="-54.234" y="-22.504" fill="url(#SVGID_2_)" width="908.469" height="120.008"/>
</g>
<g id="glows">
	
		<radialGradient id="SVGID_3_" cx="483.2676" cy="1375.8398" r="93.7261" gradientTransform="matrix(1 0 0 1 -220.6406 -1321.8398)" gradientUnits="userSpaceOnUse">
		<stop  offset="0" style="stop-color:#FFFCDD"/>
		<stop  offset="1" style="stop-color:#FEF9C8;stop-opacity:0"/>
	</radialGradient>
	<circle opacity="0.2" fill="url(#SVGID_3_)" enable-background="new    " cx="262.627" cy="54" r="93.726"/>
	
		<radialGradient id="SVGID_4_" cx="409.0801" cy="1379.752" r="74.1885" gradientTransform="matrix(1 0 0 1 -220.6406 -1321.8398)" gradientUnits="userSpaceOnUse">
		<stop  offset="0" style="stop-color:#99CCCC"/>
		<stop  offset="1" style="stop-color:#FEF9C8;stop-opacity:0"/>
	</radialGradient>
	<circle opacity="0.2" fill="url(#SVGID_4_)" enable-background="new    " cx="188.44" cy="57.913" r="74.188"/>
	
		<radialGradient id="SVGID_5_" cx="157.3257" cy="1352.9355" r="98.3567" gradientTransform="matrix(1 0 0 1 -220.6406 -1321.8398)" gradientUnits="userSpaceOnUse">
		<stop  offset="0" style="stop-color:#FFFCDD"/>
		<stop  offset="1" style="stop-color:#FEF9C8;stop-opacity:0"/>
	</radialGradient>
	<circle opacity="0.1" fill="url(#SVGID_5_)" enable-background="new    " cx="-63.315" cy="31.095" r="98.357"/>
	
		<radialGradient id="SVGID_6_" cx="335.8037" cy="1376.0801" r="98.3555" gradientTransform="matrix(1 0 0 1 -220.6406 -1321.8398)" gradientUnits="userSpaceOnUse">
		<stop  offset="0" style="stop-color:#FFFCDD"/>
		<stop  offset="1" style="stop-color:#FEF9C8;stop-opacity:0"/>
	</radialGradient>
	<circle opacity="0.1" fill="url(#SVGID_6_)" enable-background="new    " cx="115.163" cy="54.24" r="98.356"/>
</g>
<g id="octopus">
	
		<radialGradient id="SVGID_7_" cx="825.5996" cy="3011.123" r="224.6758" gradientTransform="matrix(0.7387 0.0645 -0.0694 0.5094 -64.743 -1553.2639)" gradientUnits="userSpaceOnUse">
		<stop  offset="0" style="stop-color:#BCCCB3"/>
		<stop  offset="1" style="stop-color:#FEF9C8;stop-opacity:0"/>
	</radialGradient>
	<path opacity="0.6" fill="url(#SVGID_7_)" enable-background="new    " d="M521.219-32.511c0,0,25.727,25.28,7.91,59.275
		c-30.113,57.465-98.113,61.133-203.872,34.804C138.904,15.175,123.272,81.086,123.843,87.383l8.932,11.236
		c-0.573-6.299,15.058-72.207,201.414-25.813c105.755,26.326,173.754,22.658,203.868-34.805
		C555.876,4.007,521.219-32.511,521.219-32.511"/>
	
		<linearGradient id="SVGID_8_" gradientUnits="userSpaceOnUse" x1="804.2061" y1="-1747.3735" x2="570.6918" y2="-1747.3735" gradientTransform="matrix(-0.7403 -0.043 0.0546 -0.5112 927.462 -759.2089)">
		<stop  offset="0" style="stop-color:#BCCCB3"/>
		<stop  offset="1" style="stop-color:#FEF9C8;stop-opacity:0"/>
	</linearGradient>
	<path opacity="0.5" fill="url(#SVGID_8_)" enable-background="new    " d="M65.285,171.85c0,0-26.448-24.523-9.627-59.021
		c28.434-58.313,96.301-63.95,202.776-40.699c187.621,40.965,201.333-25.37,200.581-31.649l-9.254-10.974
		c0.757,6.28-12.958,72.609-200.58,31.647c-106.474-23.25-174.337-17.609-202.773,40.7C29.583,136.352,65.285,171.85,65.285,171.85"
		/>
</g>
<g id="debian">
	<g>
		<path fill="#FFFFFF" d="M403.851,33.8c-0.045,0.047-0.045,7.508-0.138,9.455c-0.092,1.575-0.232,4.959-3.568,4.959
			c-3.43,0-4.264-3.938-4.541-5.652c-0.324-1.899-0.324-3.48-0.324-4.172c0-2.226,0.141-8.437,5.375-8.437
			c1.576,0,2.456,0.465,3.151,0.834L403.851,33.8z M390.415,39.271c0,13.068,6.951,13.068,7.972,13.068
			c2.872,0,4.726-1.576,5.513-4.309l0.093,4.123c0.881-0.047,1.764-0.141,3.197-0.141c0.51,0,0.926,0,1.298,0.049
			c0.371,0,0.741,0.045,1.158,0.092c-0.741-1.482-1.297-4.818-1.297-12.052c0-7.044,0-18.953,0.603-22.567
			c-1.668,0.789-3.104,1.299-6.257,1.576c1.251,1.344,1.251,2.039,1.251,8.153c-0.879-0.276-1.992-0.602-3.891-0.602
			C391.758,26.664,390.415,33.893,390.415,39.271"/>
		<path fill="#FFFFFF" d="M415.543,36.903c0.047-3.845,0.836-7.274,4.125-7.274c3.613,0,3.891,3.984,3.799,7.274H415.543z
			 M428.054,37.369c0-5.422-1.065-10.752-7.923-10.752c-9.452,0-9.452,10.475-9.452,12.697c0,9.408,4.216,13.115,11.306,13.115
			c3.149,0,4.682-0.461,5.516-0.693c-0.047-1.668,0.186-2.734,0.465-4.17c-0.977,0.604-2.227,1.391-5.006,1.391
			c-7.229,0-7.321-6.584-7.321-8.854h12.327L428.054,37.369"/>
		<path fill="#FFFFFF" d="M443.129,39.36c0,4.312-0.787,10.105-6.162,10.105c-0.742,0-1.668-0.141-2.271-0.277
			c-0.094-1.668-0.094-4.542-0.094-7.88c0-3.985,0.416-6.067,0.742-7.092c0.972-3.289,3.148-3.334,3.564-3.334
			C442.434,30.882,443.129,35.748,443.129,39.36z M429.83,44.414c0,3.431,0,5.376-0.556,6.858c1.899,0.74,4.263,1.156,7.091,1.156
			c1.809,0,7.043,0,9.869-5.791c1.344-2.688,1.809-6.306,1.809-9.04c0-1.669-0.188-5.329-1.529-7.646
			c-1.297-2.176-3.383-3.289-5.605-3.289c-4.447,0-5.744,3.707-6.438,5.607c0-2.363,0.045-10.611,0.414-14.828
			c-3.01,1.391-4.865,1.62-6.856,1.807c1.81,0.74,1.81,3.801,1.81,13.764v11.402"/>
		<path fill="#FFFFFF" d="M456.949,52.153c-0.928-0.141-1.578-0.232-2.922-0.232c-1.479,0-2.502,0.094-3.564,0.232
			c0.463-0.881,0.646-1.299,0.787-4.311c0.186-4.126,0.23-15.157-0.094-17.475c-0.23-1.763-0.646-2.039-1.297-2.502
			c3.799-0.371,4.863-0.648,6.625-1.482c-0.369,2.037-0.418,3.06-0.418,6.163C455.975,48.54,455.928,50.253,456.949,52.153"/>
		<path fill="#FFFFFF" d="M471.787,39.034c-0.092,2.922-0.139,4.962-0.928,6.584c-0.975,2.086-2.596,2.688-3.799,2.688
			c-2.783,0-3.385-2.313-3.385-4.587c0-4.356,3.895-4.685,5.65-4.685H471.787z M459.043,44.738c0,2.921,0.881,5.839,3.477,7.091
			c1.158,0.51,2.316,0.51,2.688,0.51c4.266,0,5.699-3.15,6.58-5.098c-0.047,2.039,0,3.289,0.141,4.912
			c0.834-0.047,1.668-0.141,3.061-0.141c0.787,0,1.527,0.094,2.314,0.141c-0.511-0.787-0.787-1.252-0.93-3.061
			c-0.092-1.76-0.092-3.52-0.092-5.979l0.047-9.455c0-3.524-0.928-6.999-7.879-6.999c-4.586,0-7.271,1.391-8.617,2.086
			c0.559,1.02,1.021,1.897,1.438,3.894c1.809-1.577,4.172-2.411,6.578-2.411c3.85,0,3.85,2.55,3.85,6.164
			c-0.881-0.045-1.623-0.138-2.875-0.138C462.936,36.257,459.043,38.524,459.043,44.738"/>
		<path fill="#FFFFFF" d="M498.477,47.567c0.047,1.576,0.047,3.244,0.695,4.59c-1.021-0.094-1.623-0.232-3.521-0.232
			c-1.113,0-1.715,0.096-2.596,0.232c0.184-0.604,0.279-0.834,0.371-1.623c0.139-1.064,0.23-4.635,0.23-5.888v-5.006
			c0-2.18,0-5.332-0.143-6.44c-0.092-0.787-0.32-2.919-3.012-2.919c-2.643,0-3.521,1.944-3.848,3.521
			c-0.369,1.621-0.369,3.384-0.369,10.243c0.045,5.935,0.045,6.487,0.51,8.11c-0.787-0.092-1.762-0.186-3.148-0.186
			c-1.113,0-1.854,0.045-2.779,0.186c0.324-0.742,0.512-1.113,0.604-3.707c0.094-2.549,0.277-15.066-0.143-18.029
			c-0.229-1.809-0.693-2.225-1.201-2.688c3.754-0.186,4.955-0.788,6.115-1.389v4.91c0.557-1.438,1.713-4.635,6.35-4.635
			c5.793,0,5.838,4.217,5.885,6.997V47.567"/>
		<path fill="#FFFFFF" d="M457.34,19.828l-3.838,3.836l-3.836-3.836l3.836-3.836L457.34,19.828"/>
	</g>
	<g id="_x39__1_">
		<g>
			<g>
				<path fill="#FFFFFF" d="M525.064,45.638c-6.785,0.199-12.678-5.749-12.678-12.195c0-7.138,5.166-13.407,12.885-13.407
					c7.715,0,12.475,6.269,12.475,15.902c0,8.308-2.78,14.11-6.5,17.711c-2.897,2.844-6.905,4.584-10.969,5.051
					c-1.854,0.289-3.479,0.348-4.699,0.289c0,0,17.33-5.209,17.875-19.468c0.119-3.19,2.322-15.885-8.59-15.595
					c-4.35,0.115-7.43,3.83-7.43,9.17c0,4.698,1.443,8.029,6.207,9.196c3.328,0.814,5.416-0.475,7.883-6.501
					C531.523,35.791,532.615,45.416,525.064,45.638z"/>
			</g>
		</g>
	</g>
</g>
<g id="rounds_1_">
	<circle opacity="0.2" fill="#FFFFFF" enable-background="new    " cx="87.5" cy="41.902" r="2.938"/>
	<circle opacity="0.1" fill="#FFFFFF" enable-background="new    " cx="51.335" cy="63.824" r="2.938"/>
	<circle opacity="0.3" fill="#FFFFFF" enable-background="new    " cx="138" cy="32.053" r="2.938"/>
</g>
</svg>
